<?xml version="1.0" encoding="UTF-8"?>
<svg xmlns="http://www.w3.org/2000/svg" version="1.1" viewBox="0 0 576 576">
  <defs>
    <style>
      .cls-1 {
        stroke: #7c714d;
      }

      .cls-1, .cls-2, .cls-3, .cls-4, .cls-5, .cls-6, .cls-7, .cls-8, .cls-9 {
        stroke-miterlimit: 10;
      }

      .cls-1, .cls-3, .cls-6, .cls-7 {
        fill: none;
      }

      .cls-10 {
        fill: #847a74;
      }

      .cls-2 {
        fill: #fff;
        font-family: Georgia, Georgia;
        font-size: 68px;
        stroke: #231f20;
      }

      .cls-3, .cls-7 {
        stroke: #bcbec0;
      }

      .cls-11 {
        fill: #847b74;
      }

      .cls-4 {
        fill: #9d8f87;
      }

      .cls-4, .cls-6, .cls-8, .cls-9 {
        stroke: #7c736e;
        stroke-width: 2px;
      }

      .cls-5 {
        fill: #594a42;
        stroke: #594a42;
        stroke-width: .25px;
      }

      .cls-7 {
        stroke-width: 1.25px;
      }

      .cls-12 {
        fill: #89807d;
      }

      .cls-8 {
        fill: #9d9089;
      }

      .cls-13 {
        fill: #bcbec0;
      }

      .cls-9 {
        fill: #9d8f88;
      }
    </style>
  </defs>
  <!-- Generator: Adobe Illustrator 28.6.0, SVG Export Plug-In . SVG Version: 1.2.0 Build 709)  -->
  <g>
    <g id="Layer_2">
      <g>
        <path class="cls-13" d="M42.84,309.09c-.14-.14-.45-.18-.59,0-1.29,1.65-2.05,3.63-2.18,5.72-.03.53.8.53.83,0,.12-1.85.8-3.67,1.94-5.14.14-.18.17-.41,0-.59Z"/>
        <path class="cls-7" d="M47.41,304.26c-1.12,6.52-3.34,11.57-4.97,11.29"/>
        <path class="cls-7" d="M40.43,303.97c-2.69,6.04-3.64,11.48-2.13,12.15"/>
        <path class="cls-10" d="M36.3,299.84l1.56-44.93c.2-5.67,5.68-9.63,11.12-8.05l21.25,6.19c5.44,1.59,7.94,7.87,5.06,12.76l-22.81,38.74c-4.57,7.77-16.49,4.3-16.18-4.71Z"/>
      </g>
      <g>
        <path class="cls-13" d="M109.36,317.27c-.14-.14-.45-.18-.59,0-1.29,1.65-2.05,3.63-2.18,5.72-.03.53.8.53.83,0,.12-1.85.8-3.67,1.94-5.14.14-.18.17-.41,0-.59Z"/>
        <g>
          <path class="cls-3" d="M105.36,312.11c-2.95,4.51-3.39,9.45-.97,11.04"/>
          <path class="cls-3" d="M105.36,312.11c.71-1.09,1.91-1.56,2.67-1.06"/>
        </g>
        <path class="cls-7" d="M110.57,310.78c1.61,6.41,1.62,11.93.02,12.33"/>
        <path class="cls-11" d="M128.3,258.33l-25.68-3.49c-4.67-.63-8.68,3.3-8.15,7.98l5.98,52.3c.85,7.44,11.07,8.83,13.88,1.88l19.7-48.81c1.76-4.37-1.06-9.23-5.73-9.86Z"/>
      </g>
      <g>
        <path class="cls-13" d="M164.34,309.09c-.17-.11-.48-.06-.57.14-.84,1.92-1.1,4.02-.72,6.08.1.53.9.32.81-.2-.34-1.83-.12-3.75.63-5.45.09-.21.06-.44-.14-.57Z"/>
        <path class="cls-7" d="M164.62,303c2.69,6.04,3.64,11.48,2.13,12.15"/>
        <path class="cls-7" d="M158.33,304.43c-.02,6.61,1.31,11.97,2.96,11.97"/>
        <path class="cls-11" d="M152.99,303.72l-18.14-41.14c-2.29-5.19.92-11.14,6.51-12.08l21.83-3.67c5.59-.94,10.57,3.64,10.11,9.29l-3.69,44.81c-.74,8.99-12.98,11.04-16.62,2.79Z"/>
      </g>
      <g>
        <g>
          <path class="cls-3" d="M200.82,292.17c-1.5,5.17-.46,10.02,2.31,10.84"/>
          <path class="cls-3" d="M200.82,292.17c.36-1.25,1.37-2.06,2.24-1.8"/>
        </g>
        <g>
          <path class="cls-3" d="M205.4,292.42c2.38,4.83,2.22,9.79-.37,11.08"/>
          <path class="cls-3" d="M205.4,292.42c-.58-1.17-1.7-1.78-2.52-1.38"/>
        </g>
        <path class="cls-7" d="M206.77,290.85c2.69,6.04,3.64,11.48,2.13,12.15"/>
        <path class="cls-11" d="M196.11,290.37l-9.64-43.92c-1.22-5.54,3.11-10.74,8.78-10.55l22.12.72c5.67.19,9.64,5.66,8.07,11.1l-12.49,43.19c-2.5,8.66-14.91,8.26-16.84-.55Z"/>
      </g>
      <path class="cls-8" d="M236.21,240.12c-3.4-28.17-56.33-44.96-118.23-37.5S8.65,238.96,12.04,267.14c.37,3.14,1.37,6.14,2.93,8.98.78,1.44,1.71,2.83,2.78,4.18,4.62,5.87,11.8,10.93,20.95,14.99,10.79,4.79,24.3,8.18,39.58,9.88.05,0,.1,0,.15.02,6.29.7,12.89,1.1,19.7,1.19.27,0,.56.02.84.02,10.02.11,20.52-.45,31.31-1.75.08,0,.17-.02.27-.03.09,0,.18-.02.27-.03,6.92-.85,13.65-1.97,20.15-3.32.14-.02.28-.05.42-.08,8.18-1.72,15.99-3.81,23.32-6.22,7.54-2.46,14.57-5.26,20.98-8.33.38-.17.75-.36,1.12-.53,21.98-10.7,36.57-24.5,39.16-38.61.46-2.45.55-4.91.25-7.37ZM80.22,305.13c-1.6,0-1.6-2.49,0-2.49s1.6,2.49,0,2.49ZM96.86,304.95c-1.6,0-1.6-2.49,0-2.49s1.6,2.49,0,2.49ZM149.1,301.39c-1.61,0-1.6-2.49,0-2.49s1.6,2.49,0,2.49Z"/>
      <g>
        <path class="cls-13" d="M189.64,309.38c.05-.53.89-.53.83,0-.14,1.38-.14,2.78.05,4.16.09.66.21,1.33.39,1.97.06.21.14.54.36.66.05.03.31.07.31-.02.04-.53.87-.53.83,0-.05.66-.71,1.02-1.32.85-.79-.23-.98-1.19-1.13-1.88-.41-1.88-.52-3.82-.32-5.74Z"/>
        <path class="cls-7" d="M192.83,303c2.69,6.04,3.64,11.48,2.13,12.15"/>
        <path class="cls-7" d="M187.94,305.62c-1.44,5.84-1.31,10.89.29,11.29"/>
      </g>
      <g>
        <g>
          <path class="cls-3" d="M138.54,312.78c-2.18,4.93-1.81,9.87.83,11.06"/>
          <path class="cls-3" d="M138.54,312.78c.53-1.19,1.63-1.85,2.46-1.48"/>
        </g>
        <g>
          <path class="cls-3" d="M139.68,312.32c3.47,4.12,4.49,8.98,2.28,10.85"/>
          <path class="cls-3" d="M139.68,312.32c-.84-1-2.08-1.33-2.78-.73"/>
        </g>
        <path class="cls-7" d="M142.84,311.4c2.69,6.04,3.64,11.48,2.13,12.15"/>
      </g>
      <polyline class="cls-6" points="59.06 236.04 76.61 236.04 116.64 236.04 134.43 236.04"/>
      <path class="cls-9" d="M25.63,273.74c-.45.22-.94.41-1.45.55-4.06,1.12-9.4-1.39-10.22-5.8-1.58-8.48-.66-16.83,3.3-24.55,3.65-7.1,9.97-12.17,16.36-16.68,1.85-1.3,3.71-2.63,5.58-3.96,2.45-1.74,4.93-3.46,7.45-5.1,1.84-1.2,3.69-2.34,5.57-3.42,3.11-1.78,6.53-3.38,10.02-4.22,3.15-.76,6.5-.37,9.6-1.11,3.51-.82,6.97-3.48,10.37-4.84,3.11-1.25,6.32-2.19,9.61-2.84,7.39-1.46,14.94-1.85,22.45-1.7,7.56.16,15.11.78,22.68.77,7.75,0,14.87-1.48,22.47-2.71,7.51-1.21,14.43-.86,21.65,1.61,5.03,1.72,11.22,5.32,16.71,4.43,4.45-.71,8.92,1.09,10.22,5.8.74,2.7-.14,6.09-2.17,8.23"/>
      <path class="cls-12" d="M195.68,279.47v30.78c-2.68,4.29-9.66,4.84-12.51-.43l-8.47-15.7c-7.33,2.41-15.14,4.5-23.32,6.22-.14.03-.28.06-.42.08l-2.7,14.2c-1.4,7.36-11.7,7.99-13.98.85l-3.5-10.95-.23-.74c-.09.02-.18.02-.27.03-10.79,1.3-21.29,1.86-31.31,1.75-.28,0-.57,0-.84-.02l-5.2,11.7c-3.05,6.85-13.21,5.11-13.81-2.36l-.84-10.54c-15.28-1.7-28.79-5.09-39.58-9.88l-10.74,19.08c-3.68,6.53-13.64,3.83-13.52-3.66l.47-30.41h24.16c.68,4.84,10.34,8.68,22.15,8.68s21.48-3.84,22.16-8.68h11.02c-.02.17-.02.34-.02.51,0,6.41,9.51,11.61,21.26,11.61s21.26-5.19,21.26-11.61c0-.17,0-.34-.02-.51h4.43c.02.27.06.52.12.78,1.34,6.12,11.17,9.17,21.94,6.81,6.21-1.36,11.38-4.24,14.39-7.59h17.95Z"/>
      <path class="cls-12" d="M235.96,247.49c-2.59,14.1-17.18,27.9-39.16,38.61-.37.17-.74.36-1.12.53v-8.78c5.08-.84,10.62-2.83,16.01-5.94,11.57-6.68,19-16.55,19.16-24.41h5.11Z"/>
      <path class="cls-4" d="M164.44,275.95l2.35,4.35,7.91,14.65,8.47,15.7c2.85,5.28,9.84,4.72,12.51.43.66-1.06,1.06-2.36,1.06-3.85l.06-21.14.04-18.6"/>
      <path class="cls-4" d="M121.97,277.81l.8,2.49,7.77,24.3.23.74,3.5,10.95c2.29,7.14,12.58,6.51,13.98-.85l2.7-14.2.07-.37,3.91-20.58.47-2.49"/>
      <g>
        <path class="cls-3" d="M83.02,313.03c-2.18,4.93-1.81,9.87.83,11.06"/>
        <path class="cls-3" d="M83.02,313.03c.53-1.19,1.63-1.85,2.46-1.48"/>
      </g>
      <path class="cls-13" d="M86.42,316.11c-.56,2.51-2.58,4.96-1.54,7.63.19.49,1,.28.8-.22-.96-2.47,1.02-4.86,1.54-7.19.12-.52-.68-.74-.8-.22Z"/>
      <path class="cls-7" d="M90.18,311.92c.78,6.79-.35,12.49-2.51,12.74"/>
      <path class="cls-9" d="M76.11,277.81l.2,2.49,1.97,24.87.84,10.54c.6,7.47,10.76,9.21,13.81,2.36l5.2-11.7.5-1.12,11.09-24.95,1.11-2.49"/>
      <path class="cls-9" d="M78.43,305.98v-2.49,2.49Z"/>
      <g>
        <path class="cls-13" d="M20.2,311.76c-.56,2.51-2.58,4.96-1.54,7.63.19.49,1,.28.8-.22-.96-2.47,1.02-4.86,1.54-7.19.12-.52-.68-.74-.8-.22Z"/>
        <path class="cls-7" d="M28.3,302.52c-1.19,9.94-4.32,17.88-7.01,17.75"/>
        <path class="cls-7" d="M18.49,307.55c-2.69,6.04-3.64,11.48-2.13,12.15"/>
        <path class="cls-9" d="M15.12,266.89l-.14,9.23-.07,4.18-.47,30.41c-.12,7.49,9.84,10.19,13.52,3.66l10.74-19.08,8.44-14.99,1.98-3.51"/>
      </g>
      <path class="cls-8" d="M225.28,251.72c16.89-1.71,29.89-12.07,29.89-24.6,0-13.73-15.6-24.85-34.83-24.85-7.79,0-14.98,1.83-20.78,4.9"/>
      <path class="cls-8" d="M254.67,222.88h2.67c4.15,0,7.54,3.4,7.54,7.54,0,2.08-.85,3.96-2.22,5.33s-3.26,2.21-5.33,2.21h-5.66"/>
      <g>
        <path class="cls-5" d="M260.52,235.22c2.26-2.38,2.41-6.39.32-8.97"/>
        <path class="cls-5" d="M260.52,235.22c-2.05-2.57-1.83-6.58.47-8.97"/>
      </g>
      <path class="cls-1" d="M260.21,235.52c-2.04-2.69-1.81-6.97.5-9.57"/>
      <text class="cls-2" transform="translate(233.82 306.61)"><tspan x="0" y="0">Liam Perry</tspan></text>
    </g>
  </g>
</svg>